<?xml version="1.0" encoding="UTF-8"?>
<svg xmlns="http://www.w3.org/2000/svg" xmlns:xlink="http://www.w3.org/1999/xlink" width="414pt" height="346pt" viewBox="0 0 414 346" version="1.1">
<defs>
<filter id="alpha" filterUnits="objectBoundingBox" x="0%" y="0%" width="100%" height="100%">
  <feColorMatrix type="matrix" in="SourceGraphic" values="0 0 0 0 1 0 0 0 0 1 0 0 0 0 1 0 0 0 1 0"/>
</filter>
<mask id="mask0">
  <g filter="url(#alpha)">
<rect x="0" y="0" width="414" height="346" style="fill:rgb(0%,0%,0%);fill-opacity:0.101961;stroke:none;"/>
  </g>
</mask>
<clipPath id="clip1">
  <rect x="0" y="0" width="414" height="346"/>
</clipPath>
<g id="surface5" clip-path="url(#clip1)">
<path style=" stroke:none;fill-rule:nonzero;fill:rgb(0%,0%,0%);fill-opacity:1;" d="M 275.113281 28.621094 C 275.113281 28.621094 281.867188 47.867188 277.710938 50.828125 C 273.554688 53.789062 291.738281 77.96875 291.738281 77.96875 L 313.558594 72.046875 L 301.609375 51.816406 C 301.609375 51.816406 300.050781 31.582031 300.050781 28.621094 C 300.050781 25.660156 275.113281 28.621094 275.113281 28.621094 Z M 275.113281 28.621094 "/>
</g>
</defs>
<g id="surface1">
<path style=" stroke:none;fill-rule:nonzero;fill:rgb(18.431373%,18.039216%,25.490196%);fill-opacity:1;" d="M 19.238281 329.6875 C 24.980469 340.351562 37.167969 344.925781 37.167969 344.925781 C 37.167969 344.925781 40.042969 332.21875 34.300781 321.554688 C 28.558594 310.894531 16.371094 306.316406 16.371094 306.316406 C 16.371094 306.316406 13.496094 319.027344 19.238281 329.6875 Z M 19.238281 329.6875 "/>
<path style=" stroke:none;fill-rule:nonzero;fill:rgb(42.352941%,38.823529%,100%);fill-opacity:1;" d="M 23.183594 326.179688 C 33.550781 332.425781 37.546875 344.828125 37.546875 344.828125 C 37.546875 344.828125 24.726562 347.109375 14.359375 340.863281 C 3.992188 334.617188 0 322.214844 0 322.214844 C 0 322.214844 12.816406 319.9375 23.183594 326.179688 Z M 23.183594 326.179688 "/>
<path style=" stroke:none;fill-rule:nonzero;fill:rgb(94.901961%,94.901961%,94.901961%);fill-opacity:1;" d="M 190.941406 16.609375 L 255.628906 16.609375 L 255.628906 17.535156 L 190.941406 17.535156 Z M 190.941406 16.609375 "/>
<path style=" stroke:none;fill-rule:nonzero;fill:rgb(94.901961%,94.901961%,94.901961%);fill-opacity:1;" d="M 237.148438 17.304688 L 238.074219 17.304688 L 238.074219 25.859375 L 237.148438 25.859375 Z M 237.148438 17.304688 "/>
<path style=" stroke:none;fill-rule:nonzero;fill:rgb(94.901961%,94.901961%,94.901961%);fill-opacity:1;" d="M 208.964844 17.304688 L 209.886719 17.304688 L 209.886719 25.859375 L 208.964844 25.859375 Z M 208.964844 17.304688 "/>
<path style=" stroke:none;fill-rule:nonzero;fill:rgb(94.901961%,94.901961%,94.901961%);fill-opacity:1;" d="M 223.75 61.015625 L 288.4375 61.015625 L 288.4375 61.941406 L 223.75 61.941406 Z M 223.75 61.015625 "/>
<path style=" stroke:none;fill-rule:nonzero;fill:rgb(94.901961%,94.901961%,94.901961%);fill-opacity:1;" d="M 241.308594 52.691406 L 242.230469 52.691406 L 242.230469 61.246094 L 241.308594 61.246094 Z M 241.308594 52.691406 "/>
<path style=" stroke:none;fill-rule:nonzero;fill:rgb(94.901961%,94.901961%,94.901961%);fill-opacity:1;" d="M 269.492188 52.691406 L 270.417969 52.691406 L 270.417969 61.246094 L 269.492188 61.246094 Z M 269.492188 52.691406 "/>
<path style=" stroke:none;fill-rule:nonzero;fill:rgb(94.901961%,94.901961%,94.901961%);fill-opacity:1;" d="M 309.691406 81.832031 L 374.378906 81.832031 L 374.378906 82.757812 L 309.691406 82.757812 Z M 309.691406 81.832031 "/>
<path style=" stroke:none;fill-rule:nonzero;fill:rgb(94.901961%,94.901961%,94.901961%);fill-opacity:1;" d="M 327.25 73.503906 L 328.171875 73.503906 L 328.171875 82.0625 L 327.25 82.0625 Z M 327.25 73.503906 "/>
<path style=" stroke:none;fill-rule:nonzero;fill:rgb(94.901961%,94.901961%,94.901961%);fill-opacity:1;" d="M 355.433594 73.503906 L 356.359375 73.503906 L 356.359375 82.0625 L 355.433594 82.0625 Z M 355.433594 73.503906 "/>
<path style=" stroke:none;fill-rule:nonzero;fill:rgb(94.901961%,94.901961%,94.901961%);fill-opacity:1;" d="M 303.222656 296.460938 L 367.910156 296.460938 L 367.910156 297.386719 L 303.222656 297.386719 Z M 303.222656 296.460938 "/>
<path style=" stroke:none;fill-rule:nonzero;fill:rgb(94.901961%,94.901961%,94.901961%);fill-opacity:1;" d="M 320.78125 288.136719 L 321.703125 288.136719 L 321.703125 296.695312 L 320.78125 296.695312 Z M 320.78125 288.136719 "/>
<path style=" stroke:none;fill-rule:nonzero;fill:rgb(94.901961%,94.901961%,94.901961%);fill-opacity:1;" d="M 348.964844 288.136719 L 349.890625 288.136719 L 349.890625 296.695312 L 348.964844 296.695312 Z M 348.964844 288.136719 "/>
<path style=" stroke:none;fill-rule:nonzero;fill:rgb(94.901961%,94.901961%,94.901961%);fill-opacity:1;" d="M 192.792969 147.980469 L 257.480469 147.980469 L 257.480469 148.902344 L 192.792969 148.902344 Z M 192.792969 147.980469 "/>
<path style=" stroke:none;fill-rule:nonzero;fill:rgb(94.901961%,94.901961%,94.901961%);fill-opacity:1;" d="M 210.347656 139.652344 L 211.273438 139.652344 L 211.273438 148.210938 L 210.347656 148.210938 Z M 210.347656 139.652344 "/>
<path style=" stroke:none;fill-rule:nonzero;fill:rgb(94.901961%,94.901961%,94.901961%);fill-opacity:1;" d="M 238.535156 139.652344 L 239.457031 139.652344 L 239.457031 148.210938 L 238.535156 148.210938 Z M 238.535156 139.652344 "/>
<path style=" stroke:none;fill-rule:nonzero;fill:rgb(94.901961%,94.901961%,94.901961%);fill-opacity:1;" d="M 213.121094 259.457031 L 277.808594 259.457031 L 277.808594 260.382812 L 213.121094 260.382812 Z M 213.121094 259.457031 "/>
<path style=" stroke:none;fill-rule:nonzero;fill:rgb(94.901961%,94.901961%,94.901961%);fill-opacity:1;" d="M 230.679688 251.132812 L 231.605469 251.132812 L 231.605469 259.6875 L 230.679688 259.6875 Z M 230.679688 251.132812 "/>
<path style=" stroke:none;fill-rule:nonzero;fill:rgb(94.901961%,94.901961%,94.901961%);fill-opacity:1;" d="M 258.863281 251.132812 L 259.789062 251.132812 L 259.789062 259.6875 L 258.863281 259.6875 Z M 258.863281 251.132812 "/>
<path style=" stroke:none;fill-rule:nonzero;fill:rgb(94.901961%,94.901961%,94.901961%);fill-opacity:1;" d="M 316.621094 225.691406 L 381.308594 225.691406 L 381.308594 226.613281 L 316.621094 226.613281 Z M 316.621094 225.691406 "/>
<path style=" stroke:none;fill-rule:nonzero;fill:rgb(94.901961%,94.901961%,94.901961%);fill-opacity:1;" d="M 334.179688 217.363281 L 335.105469 217.363281 L 335.105469 225.921875 L 334.179688 225.921875 Z M 334.179688 217.363281 "/>
<path style=" stroke:none;fill-rule:nonzero;fill:rgb(94.901961%,94.901961%,94.901961%);fill-opacity:1;" d="M 362.363281 217.363281 L 363.289062 217.363281 L 363.289062 225.921875 L 362.363281 225.921875 Z M 362.363281 217.363281 "/>
<path style=" stroke:none;fill-rule:nonzero;fill:rgb(18.431373%,18.039216%,25.490196%);fill-opacity:1;" d="M 167.292969 324.808594 L 57.882812 324.808594 L 57.882812 324.019531 L 166.503906 324.019531 L 166.503906 285.800781 L 67.082031 285.800781 L 62.25 275.730469 L 62.960938 275.386719 L 67.578125 285.015625 L 167.292969 285.015625 Z M 167.292969 324.808594 "/>
<path style=" stroke:none;fill-rule:nonzero;fill:rgb(24.705882%,23.921569%,33.72549%);fill-opacity:1;" d="M 80.710938 335.839844 C 80.710938 340.410156 77.007812 344.113281 72.445312 344.113281 C 67.878906 344.113281 64.179688 340.410156 64.179688 335.839844 C 64.179688 331.269531 67.878906 327.566406 72.445312 327.566406 C 77.007812 327.566406 80.710938 331.269531 80.710938 335.839844 Z M 80.710938 335.839844 "/>
<path style=" stroke:none;fill-rule:nonzero;fill:rgb(24.705882%,23.921569%,33.72549%);fill-opacity:1;" d="M 162.175781 335.839844 C 162.175781 340.410156 158.476562 344.113281 153.910156 344.113281 C 149.347656 344.113281 145.644531 340.410156 145.644531 335.839844 C 145.644531 331.269531 149.347656 327.566406 153.910156 327.566406 C 158.476562 327.566406 162.175781 331.269531 162.175781 335.839844 Z M 162.175781 335.839844 "/>
<path style=" stroke:none;fill-rule:nonzero;fill:rgb(24.705882%,23.921569%,33.72549%);fill-opacity:1;" d="M 255.054688 160.117188 C 255.054688 162.949219 252.761719 165.242188 249.9375 165.242188 C 247.113281 165.242188 244.820312 162.949219 244.820312 160.117188 C 244.820312 157.289062 247.113281 154.996094 249.9375 154.996094 C 252.761719 154.996094 255.054688 157.289062 255.054688 160.117188 Z M 255.054688 160.117188 "/>
<path style=" stroke:none;fill-rule:nonzero;fill:rgb(18.431373%,18.039216%,25.490196%);fill-opacity:1;" d="M 178.992188 272.800781 L 56.019531 272.800781 L 29.410156 185.726562 L 206.394531 185.726562 L 206.234375 186.242188 Z M 56.601562 272.011719 L 178.414062 272.011719 L 205.324219 186.515625 L 30.472656 186.515625 Z M 56.601562 272.011719 "/>
<path style=" stroke:none;fill-rule:nonzero;fill:rgb(94.901961%,94.901961%,94.901961%);fill-opacity:1;" d="M 169.394531 268.269531 L 61.378906 268.269531 L 38.007812 191.046875 L 193.460938 191.046875 L 193.320312 191.5 Z M 169.394531 268.269531 "/>
<path style=" stroke:none;fill-rule:nonzero;fill:rgb(18.431373%,18.039216%,25.490196%);fill-opacity:1;" d="M 208.601562 177.949219 L 207.839844 177.746094 L 213.035156 158.148438 L 243.246094 158.148438 L 243.246094 158.9375 L 213.640625 158.9375 Z M 208.601562 177.949219 "/>
<path style=" stroke:none;fill-rule:nonzero;fill:rgb(18.431373%,18.039216%,25.490196%);fill-opacity:1;" d="M 38.007812 212.125 L 197.550781 212.125 L 197.550781 212.914062 L 38.007812 212.914062 Z M 38.007812 212.125 "/>
<path style=" stroke:none;fill-rule:nonzero;fill:rgb(18.431373%,18.039216%,25.490196%);fill-opacity:1;" d="M 46.878906 241.15625 L 188.414062 241.15625 L 188.414062 241.945312 L 46.878906 241.945312 Z M 46.878906 241.15625 "/>
<path style=" stroke:none;fill-rule:nonzero;fill:rgb(18.431373%,18.039216%,25.490196%);fill-opacity:1;" d="M 117.507812 186.121094 L 118.292969 186.121094 L 118.292969 272.40625 L 117.507812 272.40625 Z M 117.507812 186.121094 "/>
<path style=" stroke:none;fill-rule:nonzero;fill:rgb(18.431373%,18.039216%,25.490196%);fill-opacity:1;" d="M 147.882812 272.378906 L 153.535156 186.097656 L 154.320312 186.148438 L 148.667969 272.429688 Z M 147.882812 272.378906 "/>
<path style=" stroke:none;fill-rule:nonzero;fill:rgb(18.431373%,18.039216%,25.490196%);fill-opacity:1;" d="M 81.496094 186.148438 L 82.28125 186.097656 L 87.898438 272.378906 L 87.113281 272.433594 Z M 81.496094 186.148438 "/>
<path style=" stroke:none;fill-rule:nonzero;fill:rgb(18.431373%,18.039216%,25.490196%);fill-opacity:1;" d="M 0 344.613281 L 414 344.613281 L 414 345.539062 L 0 345.539062 Z M 0 344.613281 "/>
<path style=" stroke:none;fill-rule:nonzero;fill:rgb(62.745098%,38.039216%,41.568627%);fill-opacity:1;" d="M 275.113281 28.621094 C 275.113281 28.621094 281.867188 47.867188 277.710938 50.828125 C 273.554688 53.789062 291.738281 77.96875 291.738281 77.96875 L 313.558594 72.046875 L 301.609375 51.816406 C 301.609375 51.816406 300.050781 31.582031 300.050781 28.621094 C 300.050781 25.660156 275.113281 28.621094 275.113281 28.621094 Z M 275.113281 28.621094 "/>
<use xlink:href="#surface5" mask="url(#mask0)"/>
<path style=" stroke:none;fill-rule:nonzero;fill:rgb(18.431373%,18.039216%,25.490196%);fill-opacity:1;" d="M 263.773438 165.808594 C 263.773438 165.808594 261.800781 190.484375 263.773438 203.3125 C 265.746094 216.144531 268.703125 251.675781 268.703125 251.675781 C 268.703125 251.675781 268.703125 318.789062 279.546875 319.773438 C 290.390625 320.761719 298.28125 321.75 299.265625 317.800781 C 300.25 313.851562 294.335938 311.878906 297.292969 309.90625 C 300.25 307.929688 301.238281 301.023438 297.292969 293.125 C 293.351562 285.230469 297.292969 205.289062 297.292969 205.289062 L 316.023438 255.621094 C 316.023438 255.621094 317.996094 297.074219 319.96875 302.996094 C 321.941406 308.917969 317.996094 319.773438 324.898438 320.761719 C 331.796875 321.75 339.6875 315.828125 343.628906 313.851562 C 347.574219 311.878906 337.714844 311.878906 339.6875 310.890625 C 341.65625 309.90625 347.574219 306.945312 345.601562 305.957031 C 343.628906 304.96875 341.65625 257.597656 341.65625 257.597656 C 341.65625 257.597656 336.234375 156.433594 329.335938 152.484375 C 322.433594 148.539062 317.996094 155.335938 317.996094 155.335938 Z M 263.773438 165.808594 "/>
<path style=" stroke:none;fill-rule:nonzero;fill:rgb(18.431373%,18.039216%,25.490196%);fill-opacity:1;" d="M 281.519531 315.828125 L 281.519531 323.722656 C 281.519531 323.722656 272.648438 345.183594 281.519531 345.183594 C 290.390625 345.183594 297.292969 347.410156 297.292969 344.449219 L 297.292969 317.800781 Z M 281.519531 315.828125 "/>
<path style=" stroke:none;fill-rule:nonzero;fill:rgb(18.431373%,18.039216%,25.490196%);fill-opacity:1;" d="M 339.6875 315.8125 L 339.6875 323.707031 C 339.6875 323.707031 348.558594 345.171875 339.6875 345.171875 C 330.8125 345.171875 323.910156 347.394531 323.910156 344.433594 L 323.910156 317.785156 Z M 339.6875 315.8125 "/>
<path style=" stroke:none;fill-rule:nonzero;fill:rgb(62.745098%,38.039216%,41.568627%);fill-opacity:1;" d="M 306.660156 25.167969 C 306.660156 34.980469 298.714844 42.933594 288.914062 42.933594 C 279.113281 42.933594 271.167969 34.980469 271.167969 25.167969 C 271.167969 15.355469 279.113281 7.402344 288.914062 7.402344 C 298.714844 7.402344 306.660156 15.355469 306.660156 25.167969 Z M 306.660156 25.167969 "/>
<path style=" stroke:none;fill-rule:nonzero;fill:rgb(42.352941%,38.823529%,100%);fill-opacity:1;" d="M 283.492188 58.230469 C 283.492188 58.230469 288.421875 73.035156 296.308594 70.074219 L 304.195312 67.113281 L 317.996094 161.859375 C 317.996094 161.859375 307.152344 177.652344 291.378906 167.78125 C 275.605469 157.914062 283.492188 58.230469 283.492188 58.230469 Z M 283.492188 58.230469 "/>
<path style=" stroke:none;fill-rule:nonzero;fill:rgb(24.705882%,23.921569%,33.72549%);fill-opacity:1;" d="M 297.292969 55.269531 L 301.730469 45.894531 C 301.730469 45.894531 327.855469 58.230469 331.796875 62.179688 C 335.742188 66.125 335.742188 72.046875 335.742188 72.046875 L 328.839844 96.722656 C 328.839844 96.722656 330.8125 151.003906 330.8125 152.980469 C 330.8125 154.953125 337.714844 165.808594 332.785156 161.859375 C 327.855469 157.914062 326.871094 153.964844 322.925781 159.886719 C 318.984375 165.808594 310.109375 172.71875 310.109375 172.71875 Z M 297.292969 55.269531 "/>
<path style=" stroke:none;fill-rule:nonzero;fill:rgb(62.745098%,38.039216%,41.568627%);fill-opacity:1;" d="M 331.796875 126.332031 L 328.839844 153.964844 C 328.839844 153.964844 311.09375 169.757812 315.039062 170.742188 C 318.984375 171.730469 320.953125 167.78125 320.953125 167.78125 C 320.953125 167.78125 327.855469 174.691406 331.796875 170.742188 C 335.742188 166.796875 345.601562 129.292969 345.601562 129.292969 Z M 331.796875 126.332031 "/>
<path style=" stroke:none;fill-rule:nonzero;fill:rgb(18.431373%,18.039216%,25.490196%);fill-opacity:1;" d="M 289.292969 0.0585938 C 285.359375 -0.0820312 281.148438 -0.148438 277.832031 1.972656 C 276.304688 3.035156 274.964844 4.347656 273.871094 5.855469 C 270.640625 9.941406 267.847656 15.085938 269.046875 20.160156 L 270.441406 19.613281 C 270.441406 20.96875 270.140625 22.304688 269.5625 23.527344 C 269.757812 22.957031 270.414062 23.882812 270.238281 24.460938 L 268.703125 29.5 C 271.226562 28.574219 274.367188 30.449219 274.75 33.113281 C 274.925781 27.257812 275.535156 20.542969 280.28125 17.113281 C 282.671875 15.382812 285.703125 14.855469 288.617188 14.386719 C 291.304688 13.953125 294.121094 13.542969 296.699219 14.425781 C 299.273438 15.3125 301.464844 17.949219 300.882812 20.613281 C 302.070312 20.203125 303.398438 21.03125 303.984375 22.144531 C 304.570312 23.253906 304.601562 24.566406 304.617188 25.824219 C 305.882812 26.71875 307.324219 24.941406 307.839844 23.476562 C 309.050781 20.042969 310.128906 16.386719 309.476562 12.804688 C 308.824219 9.222656 305.90625 5.796875 302.269531 5.785156 C 302.710938 5.300781 302.945312 4.660156 302.925781 4.003906 L 299.925781 3.75 C 300.6875 3.644531 301.386719 3.273438 301.90625 2.707031 C 300.703125 4.03125 291.238281 0.128906 289.292969 0.0585938 Z M 289.292969 0.0585938 "/>
<path style=" stroke:none;fill-rule:nonzero;fill:rgb(24.705882%,23.921569%,33.72549%);fill-opacity:1;" d="M 288.421875 52.308594 C 288.421875 52.308594 280.394531 44.433594 277.507812 44.917969 C 274.617188 45.398438 270.675781 52.308594 270.675781 52.308594 C 270.675781 52.308594 247.015625 60.203125 248 68.101562 C 248.984375 75.996094 259.832031 114.488281 259.832031 114.488281 C 259.832031 114.488281 268.703125 160.875 260.816406 165.808594 C 252.929688 170.742188 298.28125 183.574219 299.265625 177.652344 C 300.25 171.730469 302.222656 112.511719 299.265625 103.628906 C 296.308594 94.746094 288.421875 52.308594 288.421875 52.308594 Z M 288.421875 52.308594 "/>
<path style=" stroke:none;fill-rule:nonzero;fill:rgb(24.705882%,23.921569%,33.72549%);fill-opacity:1;" d="M 322.925781 68.101562 L 335.117188 68.101562 C 335.117188 68.101562 343.628906 105.605469 344.613281 109.550781 C 345.601562 113.5 347.574219 132.253906 346.585938 132.253906 C 345.601562 132.253906 325.882812 128.304688 325.882812 131.265625 Z M 322.925781 68.101562 "/>
<path style=" stroke:none;fill-rule:nonzero;fill:rgb(94.901961%,94.901961%,94.901961%);fill-opacity:1;" d="M 322.511719 160.972656 L 275.847656 160.972656 C 271.292969 140 270.910156 119.738281 275.847656 100.378906 L 322.511719 100.378906 C 314.980469 119.390625 314.511719 139.511719 322.511719 160.972656 Z M 322.511719 160.972656 "/>
<path style=" stroke:none;fill-rule:nonzero;fill:rgb(62.745098%,38.039216%,41.568627%);fill-opacity:1;" d="M 256.875 135.214844 L 270.675781 141.136719 C 270.675781 141.136719 297.292969 145.082031 297.292969 134.226562 C 297.292969 123.371094 270.675781 129.292969 270.675781 129.292969 L 261.800781 126.453125 Z M 256.875 135.214844 "/>
<path style=" stroke:none;fill-rule:nonzero;fill:rgb(24.705882%,23.921569%,33.72549%);fill-opacity:1;" d="M 259.832031 62.179688 L 248 65.140625 L 239.128906 117.449219 C 239.128906 117.449219 236.171875 131.265625 241.097656 132.253906 C 246.027344 133.238281 259.832031 141.136719 259.832031 141.136719 C 259.832031 141.136719 261.800781 126.332031 265.746094 126.332031 L 255.886719 118.433594 L 261.800781 83.890625 Z M 259.832031 62.179688 "/>
<path style=" stroke:none;fill-rule:nonzero;fill:rgb(94.901961%,94.901961%,94.901961%);fill-opacity:1;" d="M 27.839844 163.242188 L 92.527344 163.242188 L 92.527344 164.167969 L 27.839844 164.167969 Z M 27.839844 163.242188 "/>
<path style=" stroke:none;fill-rule:nonzero;fill:rgb(94.901961%,94.901961%,94.901961%);fill-opacity:1;" d="M 45.394531 154.917969 L 46.320312 154.917969 L 46.320312 163.476562 L 45.394531 163.476562 Z M 45.394531 154.917969 "/>
<path style=" stroke:none;fill-rule:nonzero;fill:rgb(94.901961%,94.901961%,94.901961%);fill-opacity:1;" d="M 73.582031 154.917969 L 74.503906 154.917969 L 74.503906 163.476562 L 73.582031 163.476562 Z M 73.582031 154.917969 "/>
<path style=" stroke:none;fill-rule:nonzero;fill:rgb(94.901961%,94.901961%,94.901961%);fill-opacity:1;" d="M 50.480469 26.324219 L 115.167969 26.324219 L 115.167969 27.25 L 50.480469 27.25 Z M 50.480469 26.324219 "/>
<path style=" stroke:none;fill-rule:nonzero;fill:rgb(94.901961%,94.901961%,94.901961%);fill-opacity:1;" d="M 96.683594 27.015625 L 97.609375 27.015625 L 97.609375 35.574219 L 96.683594 35.574219 Z M 96.683594 27.015625 "/>
<path style=" stroke:none;fill-rule:nonzero;fill:rgb(94.901961%,94.901961%,94.901961%);fill-opacity:1;" d="M 68.5 27.015625 L 69.421875 27.015625 L 69.421875 35.574219 L 68.5 35.574219 Z M 68.5 27.015625 "/>
<path style=" stroke:none;fill-rule:nonzero;fill:rgb(94.901961%,94.901961%,94.901961%);fill-opacity:1;" d="M 115.628906 117.449219 L 180.316406 117.449219 L 180.316406 118.375 L 115.628906 118.375 Z M 115.628906 117.449219 "/>
<path style=" stroke:none;fill-rule:nonzero;fill:rgb(94.901961%,94.901961%,94.901961%);fill-opacity:1;" d="M 161.832031 118.144531 L 162.757812 118.144531 L 162.757812 126.699219 L 161.832031 126.699219 Z M 161.832031 118.144531 "/>
<path style=" stroke:none;fill-rule:nonzero;fill:rgb(94.901961%,94.901961%,94.901961%);fill-opacity:1;" d="M 133.648438 118.144531 L 134.574219 118.144531 L 134.574219 126.699219 L 133.648438 126.699219 Z M 133.648438 118.144531 "/>
<path style=" stroke:none;fill-rule:nonzero;fill:rgb(94.901961%,94.901961%,94.901961%);fill-opacity:1;" d="M 5.660156 116.988281 L 70.347656 116.988281 L 70.347656 117.910156 L 5.660156 117.910156 Z M 5.660156 116.988281 "/>
<path style=" stroke:none;fill-rule:nonzero;fill:rgb(94.901961%,94.901961%,94.901961%);fill-opacity:1;" d="M 51.863281 117.679688 L 52.789062 117.679688 L 52.789062 126.238281 L 51.863281 126.238281 Z M 51.863281 117.679688 "/>
<path style=" stroke:none;fill-rule:nonzero;fill:rgb(94.901961%,94.901961%,94.901961%);fill-opacity:1;" d="M 23.679688 117.679688 L 24.605469 117.679688 L 24.605469 126.238281 L 23.679688 126.238281 Z M 23.679688 117.679688 "/>
<path style=" stroke:none;fill-rule:nonzero;fill:rgb(94.901961%,94.901961%,94.901961%);fill-opacity:1;" d="M 83.285156 70.730469 L 147.972656 70.730469 L 147.972656 71.65625 L 83.285156 71.65625 Z M 83.285156 70.730469 "/>
<path style=" stroke:none;fill-rule:nonzero;fill:rgb(94.901961%,94.901961%,94.901961%);fill-opacity:1;" d="M 100.84375 62.402344 L 101.765625 62.402344 L 101.765625 70.960938 L 100.84375 70.960938 Z M 100.84375 62.402344 "/>
<path style=" stroke:none;fill-rule:nonzero;fill:rgb(94.901961%,94.901961%,94.901961%);fill-opacity:1;" d="M 129.027344 62.402344 L 129.953125 62.402344 L 129.953125 70.960938 L 129.027344 70.960938 Z M 129.027344 62.402344 "/>
</g>
</svg>
