<svg width="19" height="19" viewBox="0 0 19 19" fill="none" xmlns="http://www.w3.org/2000/svg">
<path d="M11.3274 5.11042C11.7901 5.11042 12.1651 4.73538 12.1651 4.27274C12.1651 3.8101 11.7901 3.43506 11.3274 3.43506C10.8648 3.43506 10.4897 3.8101 10.4897 4.27274C10.4897 4.73538 10.8648 5.11042 11.3274 5.11042Z" stroke="#4A4B57" stroke-width="1.1087" stroke-linecap="round" stroke-linejoin="round"/>
<path d="M9.6522 14.3248V10.9741L7.13916 9.29869L9.6522 6.78564L11.3276 8.46101L13.0029 9.29869" stroke="#4A4B57" stroke-width="1.1087" stroke-linecap="round" stroke-linejoin="round"/>
<path d="M4.62608 16.0002C6.014 16.0002 7.13912 14.8751 7.13912 13.4872C7.13912 12.0992 6.014 10.9741 4.62608 10.9741C3.23817 10.9741 2.11304 12.0992 2.11304 13.4872C2.11304 14.8751 3.23817 16.0002 4.62608 16.0002Z" stroke="#4A4B57" stroke-width="1.1087" stroke-linecap="round" stroke-linejoin="round"/>
<path d="M14.6781 16.0002C16.066 16.0002 17.1911 14.8751 17.1911 13.4872C17.1911 12.0992 16.066 10.9741 14.6781 10.9741C13.2902 10.9741 12.165 12.0992 12.165 13.4872C12.165 14.8751 13.2902 16.0002 14.6781 16.0002Z" stroke="#4A4B57" stroke-width="1.1087" stroke-linecap="round" stroke-linejoin="round"/>
</svg>
